<svg width="172" height="172" viewBox="0 0 172 172" fill="none" xmlns="http://www.w3.org/2000/svg">
<g filter="url(#filter0_d)">
<rect width="164" height="164" transform="translate(4)" fill="white"/>
<rect x="4" width="164" height="164" fill="#34C759" fill-opacity="0.6"/>
<g clip-path="url(#clip0)">
<path d="M74.1935 113.188C73.6134 112.608 73.0634 112.418 72.2933 112.418H64.2723C58.2915 112.418 55.6112 109.717 55.6112 103.755V95.7334C55.6112 94.9632 55.3912 94.4131 54.8411 93.8329L49.1604 88.1215C44.9699 83.9005 44.9399 80.1495 49.1604 75.9285L54.8411 70.187C55.3912 69.6369 55.6112 69.0867 55.6112 68.3066V60.2545C55.6112 54.273 58.2815 51.6224 64.2723 51.6224H72.2933C73.0634 51.6224 73.6434 51.4023 74.1935 50.8522L79.9042 45.1708C84.1248 40.9497 87.8752 40.9197 92.0957 45.1708L97.8065 50.8522C98.3865 51.4023 98.9366 51.6224 99.7067 51.6224H107.728C113.708 51.6224 116.389 54.3231 116.389 60.2545V68.3066C116.389 69.0767 116.609 69.6269 117.159 70.187L122.84 75.9285C127.03 80.1495 127.06 83.9005 122.84 88.1215L117.159 93.8329C116.609 94.4131 116.389 94.9632 116.389 95.7334V103.755C116.389 109.737 113.688 112.418 107.728 112.418H99.7067C98.9366 112.418 98.3865 112.608 97.8065 113.188L92.0957 118.839C87.8752 123.03 84.1248 123.06 79.9042 118.839L74.1935 113.188ZM88.7053 115.448L95.4862 108.667C96.2263 107.866 97.0264 107.586 98.0765 107.586H107.728C110.978 107.586 111.558 106.976 111.558 103.755V94.073C111.558 93.0227 111.888 92.2225 112.638 91.4823L119.449 84.7207C121.739 82.4001 121.739 81.6299 119.449 79.3193L112.638 72.5376C111.898 71.7974 111.558 70.9972 111.558 69.947V60.2645C111.558 57.0337 110.978 56.4536 107.728 56.4536H98.0765C97.0264 56.4536 96.2263 56.1535 95.4862 55.3733L88.7053 48.5716C86.385 46.281 85.6149 46.281 83.3046 48.5716L76.5238 55.3833C75.7837 56.1535 75.0036 56.4636 73.9635 56.4636H64.2823C61.0019 56.4636 60.4518 57.0137 60.4518 60.2745V69.957C60.4518 71.0072 60.1218 71.8074 59.3717 72.5476L52.5608 79.3293C50.3005 81.6499 50.3005 82.4201 52.5608 84.7307L59.3717 91.4923C60.1117 92.2325 60.4518 93.0327 60.4518 94.083V103.765C60.4518 106.996 61.0619 107.596 64.2823 107.596H73.9635C75.0136 107.596 75.7837 107.876 76.5238 108.677L83.3046 115.458C85.6149 117.739 86.385 117.739 88.7053 115.448ZM78.444 98.214L66.9426 85.2808C66.4725 84.8107 66.2525 84.2305 66.2525 83.6304C66.2525 82.22 67.3327 81.1998 68.8128 81.1998C69.5829 81.1998 70.193 81.4498 70.6931 82L80.2643 92.6726L98.4865 66.9062C99.0966 66.076 99.6467 65.7159 100.667 65.7159C102.077 65.7159 103.147 66.7662 103.147 68.1465C103.147 68.6666 102.927 69.2468 102.597 69.7169L82.3845 98.074C81.9445 98.6541 81.2544 99.0442 80.3443 99.0442C79.4942 99.0442 78.9141 98.7142 78.444 98.214Z" fill="white"/>
</g>
</g>
<defs>
<filter id="filter0_d" x="0" y="0" width="172" height="172" filterUnits="userSpaceOnUse" color-interpolation-filters="sRGB">
<feFlood flood-opacity="0" result="BackgroundImageFix"/>
<feColorMatrix in="SourceAlpha" type="matrix" values="0 0 0 0 0 0 0 0 0 0 0 0 0 0 0 0 0 0 127 0"/>
<feOffset dy="4"/>
<feGaussianBlur stdDeviation="2"/>
<feColorMatrix type="matrix" values="0 0 0 0 0 0 0 0 0 0 0 0 0 0 0 0 0 0 0.25 0"/>
<feBlend mode="normal" in2="BackgroundImageFix" result="effect1_dropShadow"/>
<feBlend mode="normal" in="SourceGraphic" in2="effect1_dropShadow" result="shape"/>
</filter>
<clipPath id="clip0">
<rect width="80" height="80" fill="white" transform="translate(46 42)"/>
</clipPath>
</defs>
</svg>
