<svg width="164" height="164" viewBox="0 0 164 164" fill="none" xmlns="http://www.w3.org/2000/svg">
<rect width="164" height="164" fill="white"/>
<rect width="164" height="164" fill="#FF3B30" fill-opacity="0.6"/>
<g clip-path="url(#clip0)">
<path d="M70.1935 113.188C69.6134 112.608 69.0634 112.418 68.2933 112.418H60.2723C54.2915 112.418 51.6112 109.717 51.6112 103.755V95.7334C51.6112 94.9632 51.3912 94.4131 50.8411 93.8329L45.1604 88.1215C40.9699 83.9005 40.9399 80.1495 45.1604 75.9285L50.8411 70.187C51.3912 69.6369 51.6112 69.0867 51.6112 68.3066V60.2545C51.6112 54.273 54.2815 51.6224 60.2723 51.6224H68.2933C69.0634 51.6224 69.6434 51.4023 70.1935 50.8522L75.9042 45.1708C80.1248 40.9497 83.8752 40.9197 88.0957 45.1708L93.8065 50.8522C94.3865 51.4023 94.9366 51.6224 95.7067 51.6224H103.728C109.708 51.6224 112.389 54.3231 112.389 60.2545V68.3066C112.389 69.0767 112.609 69.6269 113.159 70.187L118.84 75.9285C123.03 80.1495 123.06 83.9005 118.84 88.1215L113.159 93.8329C112.609 94.4131 112.389 94.9632 112.389 95.7334V103.755C112.389 109.737 109.688 112.418 103.728 112.418H95.7067C94.9366 112.418 94.3865 112.608 93.8065 113.188L88.0957 118.839C83.8752 123.03 80.1248 123.06 75.9042 118.839L70.1935 113.188ZM84.7053 115.448L91.4862 108.667C92.2263 107.866 93.0264 107.586 94.0765 107.586H103.728C106.978 107.586 107.558 106.976 107.558 103.755V94.073C107.558 93.0227 107.888 92.2225 108.638 91.4823L115.449 84.7207C117.739 82.4001 117.739 81.6299 115.449 79.3193L108.638 72.5376C107.898 71.7974 107.558 70.9972 107.558 69.947V60.2645C107.558 57.0337 106.978 56.4536 103.728 56.4536H94.0765C93.0264 56.4536 92.2263 56.1535 91.4862 55.3733L84.7053 48.5716C82.385 46.281 81.6149 46.281 79.3046 48.5716L72.5238 55.3833C71.7837 56.1535 71.0036 56.4636 69.9635 56.4636H60.2823C57.0019 56.4636 56.4518 57.0137 56.4518 60.2745V69.957C56.4518 71.0072 56.1218 71.8074 55.3717 72.5476L48.5608 79.3293C46.3005 81.6499 46.3005 82.4201 48.5608 84.7307L55.3717 91.4923C56.1117 92.2325 56.4518 93.0327 56.4518 94.083V103.765C56.4518 106.996 57.0619 107.596 60.2823 107.596H69.9635C71.0136 107.596 71.7837 107.876 72.5238 108.677L79.3046 115.458C81.6149 117.739 82.385 117.739 84.7053 115.448ZM67.2131 94.5431C67.2131 93.8529 67.4632 93.2728 67.9532 92.8027L78.5145 82.21L67.9632 71.6274C67.4632 71.1573 67.2231 70.5771 67.2231 69.8869C67.2231 68.5366 68.3033 67.4863 69.6734 67.4863C70.3635 67.4863 70.9136 67.7064 71.4137 68.2265L81.975 78.7592L92.6163 68.2065C93.1364 67.6564 93.6964 67.4363 94.3265 67.4363C95.7067 67.4363 96.8068 68.5166 96.8068 69.8669C96.8068 70.5571 96.5568 71.0772 96.0367 71.6074L85.4754 82.22L96.0067 92.7827C96.5068 93.2828 96.7768 93.8329 96.7768 94.5431C96.7768 95.8934 95.6767 96.9937 94.2965 96.9937C93.6064 96.9937 92.9964 96.7137 92.5363 96.2235L81.975 85.6609L71.4637 96.2235C70.9636 96.7437 70.3635 96.9937 69.6734 96.9937C68.2933 97.0037 67.2131 95.8934 67.2131 94.5431Z" fill="white"/>
</g>
<defs>
<clipPath id="clip0">
<rect width="80" height="80" fill="white" transform="translate(42 42)"/>
</clipPath>
</defs>
</svg>
