<svg width="278" height="271" viewBox="0 0 278 271" fill="none" xmlns="http://www.w3.org/2000/svg">
<g clip-path="url(#clip0)">
<path d="M31.43 115.33L31.39 84.5599L23.56 86.2499C19.33 87.1599 16.62 85.7399 16.01 82.8999C15.69 81.4399 15.61 77.6799 16.99 75.5299C17.89 74.1299 19.14 73.2199 22.67 72.4599L54.38 65.6199C58.61 64.7099 61.32 66.1299 61.93 68.9699C62.25 70.4299 62.34 74.1899 60.95 76.3299C60.05 77.7299 58.8 78.6499 55.27 79.4099L46.82 81.2299L46.9 112.15C46.85 117.15 45.2099 119.99 40.76 120.95L38.61 121.41C34.39 122.32 31.44 120.23 31.43 115.33Z" fill="#223547"/>
<path d="M91.57 102.69C91.09 100.46 91.15 98.1199 91.42 93.3999C91.63 89.8999 91.64 87.3299 91.37 86.0999C90.76 83.2599 88.84 81.8199 85.93 82.4499C83.4 82.9999 82.02 84.4199 80.88 86.9899L80.86 104.83C80.94 110.44 79.4 112.62 75.64 113.43L74.11 113.76C70.11 114.62 66.22 113.69 66.12 108.01L65.97 65.9399C65.98 60.3899 67.52 58.2099 71.29 57.3999L72.82 57.0699C76.82 56.2099 80.77 57.0399 80.71 62.7599L80.8 78.8099C82.62 73.8399 86.58 69.8499 92.03 68.6699C99.1 67.1499 104.36 71.0799 105.88 78.1399C106.46 80.8299 106.42 84.3699 106.1 89.5799C105.88 93.3999 105.76 96.5599 106.09 98.0999C106.57 100.33 107.78 101.11 109.88 101.14C110.03 101.11 109.77 106.63 102.25 108.25C95.8 109.65 92.54 107.21 91.57 102.69Z" fill="#223547"/>
<path d="M133.15 91.1498C137.6 90.1898 140.71 87.1098 142.27 83.8798C142.33 83.7898 148.25 83.3198 149.23 87.8398C149.79 90.4498 149.31 91.9198 148.05 93.8898C146.12 96.8798 141.85 99.8098 135.09 101.26C121.57 104.17 113.97 98.3398 111.9 88.7398C108.9 74.8398 117.56 63.1698 130.84 60.3098C141.28 58.0598 147.84 61.6298 149.37 68.7698C151.07 76.6798 147.09 82.4398 130.28 86.0598C128.36 86.4698 126.37 86.8998 124.11 87.2298C125.34 90.7498 128.46 92.1598 133.15 91.1498ZM127.26 78.0298C135.78 76.1898 138.05 74.0198 137.57 71.7898C137.22 70.1798 135.3 69.0698 132.14 69.7498C127.84 70.6798 124.94 74.3598 123.87 78.6798C125.11 78.4998 126.26 78.2498 127.26 78.0298Z" fill="#223547"/>
<path d="M31.1799 175.68L31.1299 138.16C31.1499 133.01 32.9399 130.14 37.3899 129.18L38.7699 128.88C41.9999 128.18 43.8999 128.81 46.5299 131.7L63.7199 151.46L63.6499 131C63.6199 126.02 65.0299 123.23 69.4799 122.27L71.1699 121.9C75.3899 120.99 78.0999 123.13 78.0399 128.05L78.1799 165.63C78.1499 170.7 76.3599 173.57 71.9799 174.52L71.0499 174.72C67.9099 175.4 65.9999 174.77 63.2899 171.9L45.5299 151.38L45.6299 172.73C45.6599 177.71 44.2499 180.5 39.7999 181.46L38.0399 181.84C33.8999 182.72 31.1899 180.58 31.1799 175.68Z" fill="#223547"/>
<path d="M101.47 168.72C93.2498 170.49 86.3698 165.79 84.3698 156.5C81.6698 143.98 87.3298 129.99 99.5398 127.35C104.38 126.31 109.47 127.54 112.64 131.44C113.72 126.79 116.49 124.34 121.33 123.3C124.17 122.69 126.74 123.42 126.78 123.98L126.83 151.45C126.81 156.2 127.88 157.81 130.75 158.08C130.84 158.14 130.57 162.46 123.89 163.9C117.82 165.21 114.3 162.68 113.06 158.04C111.45 163.2 107.38 167.45 101.47 168.72ZM104.57 138C99.0398 139.19 96.7398 145.31 97.9498 150.92C98.7598 154.68 101.68 156.7 105.14 155.96C109.29 155.07 112.08 151.25 112.04 146.2L112.02 141.3C110.35 138.76 107.95 137.27 104.57 138Z" fill="#223547"/>
<path d="M183.65 109.23C190.56 107.74 195.89 111.98 197.35 118.73C197.93 121.42 197.89 124.96 197.57 130.17C197.35 133.99 197.22 137.15 197.56 138.69C198.04 140.92 199.26 141.7 201.35 141.73C201.58 141.68 201.25 147.21 193.72 148.84C187.35 150.21 184.01 147.8 183.04 143.27C182.56 141.04 182.62 138.7 182.89 133.98C183.1 130.48 183.11 127.91 182.84 126.68C182.23 123.84 180.23 122.42 177.85 122.93C175.86 123.36 174.44 124.63 173.22 127.14C173.2 127.06 173.34 145.19 173.34 145.19C173.34 150.82 171.73 153.01 167.96 153.82L166.43 154.15C162.43 155.01 158.56 154.17 158.59 148.37L158.51 133.84C158.47 129.92 156.43 127.54 153.59 128.16C151.45 128.62 150.11 129.87 148.91 132.14L148.92 150.46C149 156.07 147.39 158.26 143.55 159.09L142.09 159.4C138.09 160.26 134.2 159.33 134.17 153.63L134.08 121.51C134.09 121.19 135.8 120.17 138.18 119.66C141.94 118.85 145.97 119.99 147.63 125.1C149.89 119.55 153.64 115.69 159.32 114.46C164.62 113.32 169.5 115.48 171.81 120.21C173.98 114.69 177.59 110.53 183.65 109.23Z" fill="#223547"/>
<path d="M224.7 131.72C229.15 130.76 232.26 127.68 233.82 124.45C233.88 124.36 239.8 123.89 240.78 128.41C241.34 131.02 240.86 132.49 239.6 134.46C237.67 137.45 233.4 140.38 226.64 141.83C213.12 144.74 205.52 138.91 203.45 129.31C200.45 115.41 209.11 103.74 222.39 100.88C232.83 98.6301 239.39 102.2 240.92 109.34C242.62 117.25 238.64 123.01 221.83 126.63C219.91 127.04 217.92 127.47 215.66 127.8C216.9 131.31 220.01 132.73 224.7 131.72ZM218.82 118.6C227.34 116.76 229.61 114.59 229.13 112.36C228.78 110.75 226.86 109.64 223.7 110.32C219.4 111.25 216.5 114.93 215.43 119.25C216.67 119.06 217.82 118.81 218.82 118.6Z" fill="#223547"/>
<path d="M68.4999 236.21C55.5299 239.01 45.7499 232.43 42.8699 219.07C39.3899 202.95 48.4399 186.37 65.7899 182.63C73.9299 180.88 80.5199 182.03 84.6099 184.6C86.8699 186.12 88.3499 188.13 88.8099 190.28C90.3799 197.58 81.2399 199.55 80.7399 199.09C78.0699 196.37 73.9099 194.62 69.0699 195.66C61.1599 197.36 56.2599 205.57 58.1899 214.56C59.4799 221.28 64.5399 225 70.9899 223.61C73.5299 223.06 75.3699 221.95 76.7199 220.37C77.9299 218.91 78.7299 217.77 79.0699 214.88L73.4699 216.09C69.9399 216.85 67.7499 215.64 67.2299 213.25C66.9699 212.02 66.8399 208.84 67.9799 207.06C68.7799 205.93 69.7999 205.06 72.7199 204.44L86.9299 201.38C91.0799 200.49 93.0899 202.38 93.1199 207.35L93.1499 228.72C93.1599 229.12 91.4699 230.61 88.7799 231.19C85.2499 231.95 82.3199 231.06 80.8699 227.67C78.6499 231.85 74.4099 234.94 68.4999 236.21Z" fill="#223547"/>
<path d="M115.51 225.99C107.29 227.76 100.41 223.06 98.4099 213.77C95.7099 201.25 101.37 187.26 113.58 184.62C118.42 183.58 123.51 184.81 126.68 188.71C127.76 184.06 130.53 181.61 135.37 180.57C138.21 179.96 140.78 180.69 140.82 181.25L140.87 208.72C140.85 213.47 141.92 215.08 144.79 215.35C144.88 215.41 144.61 219.73 137.93 221.17C131.86 222.48 128.34 219.95 127.1 215.31C125.49 220.47 121.42 224.72 115.51 225.99ZM118.61 195.27C113.08 196.46 110.78 202.58 111.99 208.19C112.8 211.95 115.72 213.97 119.18 213.23C123.33 212.34 126.12 208.52 126.08 203.47L126.06 198.57C124.39 196.04 121.98 194.55 118.61 195.27Z" fill="#223547"/>
<path d="M197.68 166.5C204.59 165.01 209.92 169.25 211.38 176C211.96 178.69 211.92 182.23 211.6 187.44C211.38 191.26 211.25 194.42 211.59 195.96C212.07 198.19 213.29 198.97 215.38 199C215.61 198.95 215.28 204.48 207.75 206.11C201.38 207.48 198.04 205.07 197.07 200.54C196.59 198.31 196.65 195.97 196.92 191.25C197.13 187.75 197.14 185.18 196.87 183.95C196.26 181.11 194.26 179.69 191.88 180.2C189.89 180.63 188.47 181.9 187.25 184.41C187.23 184.33 187.37 202.46 187.37 202.46C187.37 208.09 185.76 210.28 181.99 211.09L180.46 211.42C176.46 212.28 172.59 211.44 172.62 205.64L172.54 191.11C172.5 187.19 170.46 184.81 167.62 185.43C165.48 185.89 164.14 187.14 162.94 189.41L162.95 207.73C163.03 213.34 161.42 215.53 157.58 216.36L156.12 216.67C152.12 217.53 148.23 216.6 148.2 210.9L148.11 178.78C148.12 178.46 149.83 177.44 152.21 176.93C155.97 176.12 160 177.26 161.66 182.37C163.92 176.82 167.67 172.96 173.35 171.73C178.65 170.59 183.53 172.75 185.84 177.48C188.01 171.96 191.62 167.81 197.68 166.5Z" fill="#223547"/>
<path d="M238.73 188.99C243.18 188.03 246.29 184.95 247.85 181.72C247.91 181.63 253.83 181.16 254.81 185.68C255.37 188.29 254.89 189.76 253.63 191.73C251.7 194.72 247.43 197.65 240.67 199.1C227.15 202.01 219.55 196.18 217.48 186.58C214.48 172.68 223.14 161.01 236.42 158.15C246.86 155.9 253.42 159.47 254.95 166.61C256.65 174.52 252.67 180.28 235.86 183.9C233.94 184.31 231.95 184.74 229.69 185.07C230.93 188.59 234.05 190 238.73 188.99ZM232.85 175.87C241.37 174.03 243.64 171.86 243.16 169.63C242.81 168.02 240.89 166.91 237.73 167.59C233.43 168.52 230.53 172.2 229.46 176.52C230.7 176.33 231.85 176.09 232.85 175.87Z" fill="#223547"/>
<path d="M196.98 80.0399C212.477 80.0399 225.04 67.477 225.04 51.9799C225.04 36.4828 212.477 23.9199 196.98 23.9199C181.483 23.9199 168.92 36.4828 168.92 51.9799C168.92 67.477 181.483 80.0399 196.98 80.0399Z" fill="#223547"/>
<path d="M202.9 74.12C218.397 74.12 230.96 61.5571 230.96 46.06C230.96 30.5629 218.397 18 202.9 18C187.403 18 174.84 30.5629 174.84 46.06C174.84 61.5571 187.403 74.12 202.9 74.12Z" fill="#2B4C68"/>
<path d="M210.79 52.6903C211.779 52.6903 212.58 51.8889 212.58 50.9004C212.58 49.9118 211.779 49.1104 210.79 49.1104C209.801 49.1104 209 49.9118 209 50.9004C209 51.8889 209.801 52.6903 210.79 52.6903Z" fill="white"/>
<path d="M186.15 45.7802C187.139 45.7802 187.94 44.9788 187.94 43.9902C187.94 43.0016 187.139 42.2002 186.15 42.2002C185.162 42.2002 184.36 43.0016 184.36 43.9902C184.36 44.9788 185.162 45.7802 186.15 45.7802Z" fill="white"/>
<path d="M195.28 58.8304C198.69 59.7904 202.39 57.3303 203.71 53.3003C203.78 53.0803 203.65 52.8403 203.42 52.7703L191.48 49.4203C191.25 49.3603 191.01 49.4904 190.96 49.7204C189.99 53.8404 191.87 57.8704 195.28 58.8304Z" fill="white"/>
<path d="M38.8501 107.91L38.8101 77.14L30.9801 78.83C26.7501 79.74 24.0401 78.32 23.4301 75.48C23.1101 74.02 23.0301 70.26 24.4101 68.11C25.3101 66.71 26.5601 65.8 30.0901 65.04L61.8001 58.2C66.0301 57.29 68.7401 58.71 69.3501 61.55C69.6701 63.01 69.7601 66.77 68.3701 68.91C67.4701 70.31 66.2201 71.23 62.6901 71.99L54.2401 73.81L54.3201 104.73C54.2701 109.73 52.6301 112.57 48.1801 113.53L46.0301 113.99C41.8101 114.9 38.8701 112.8 38.8501 107.91Z" fill="white"/>
<path d="M98.9901 95.2602C98.5101 93.0302 98.5701 90.6902 98.8401 85.9702C99.0501 82.4702 99.0601 79.9002 98.7901 78.6702C98.1801 75.8302 96.2601 74.3902 93.3501 75.0202C90.8201 75.5702 89.4401 76.9902 88.3001 79.5602L88.2801 97.4002C88.3601 103.01 86.8201 105.19 83.0601 106L81.5301 106.33C77.5301 107.19 73.6401 106.26 73.5401 100.58L73.3901 58.5102C73.4001 52.9602 74.9401 50.7802 78.7101 49.9702L80.2401 49.6402C84.2401 48.7802 88.1901 49.6102 88.1301 55.3302L88.2201 71.3802C90.0401 66.4102 94.0001 62.4202 99.4501 61.2402C106.52 59.7202 111.78 63.6502 113.3 70.7102C113.88 73.4002 113.84 76.9402 113.52 82.1502C113.3 85.9702 113.18 89.1302 113.51 90.6702C113.99 92.9002 115.2 93.6802 117.3 93.7102C117.45 93.6802 117.19 99.2002 109.67 100.82C103.22 102.22 99.9701 99.7902 98.9901 95.2602Z" fill="white"/>
<path d="M140.57 83.7303C145.02 82.7703 148.13 79.6903 149.69 76.4603C149.75 76.3703 155.67 75.9003 156.65 80.4203C157.21 83.0303 156.73 84.5003 155.47 86.4703C153.54 89.4603 149.27 92.3903 142.51 93.8403C128.99 96.7503 121.39 90.9203 119.32 81.3203C116.32 67.4203 124.98 55.7503 138.26 52.8903C148.7 50.6403 155.26 54.2103 156.79 61.3503C158.49 69.2603 154.51 75.0203 137.7 78.6403C135.78 79.0503 133.79 79.4803 131.53 79.8103C132.77 83.3203 135.88 84.7403 140.57 83.7303ZM134.69 70.6103C143.21 68.7703 145.48 66.6003 145 64.3703C144.65 62.7603 142.73 61.6503 139.57 62.3303C135.27 63.2603 132.37 66.9403 131.3 71.2603C132.54 71.0703 133.69 70.8303 134.69 70.6103Z" fill="white"/>
<path d="M38.6 168.26L38.55 130.74C38.57 125.59 40.3601 122.72 44.8101 121.76L46.19 121.46C49.42 120.76 51.3201 121.39 53.9501 124.28L71.14 144.04L71.07 123.57C71.0401 118.59 72.4501 115.8 76.9001 114.84L78.59 114.47C82.81 113.56 85.5201 115.7 85.46 120.62L85.6 158.2C85.57 163.27 83.7801 166.14 79.4001 167.09L78.4701 167.29C75.3301 167.97 73.42 167.34 70.71 164.47L52.9501 143.95L53.05 165.3C53.08 170.28 51.6701 173.07 47.2201 174.03L45.46 174.41C41.33 175.3 38.61 173.16 38.6 168.26Z" fill="white"/>
<path d="M108.89 161.3C100.67 163.07 93.79 158.37 91.79 149.08C89.09 136.56 94.75 122.57 106.96 119.93C111.8 118.89 116.89 120.12 120.06 124.02C121.14 119.37 123.91 116.92 128.75 115.88C131.59 115.27 134.16 116 134.2 116.56L134.25 144.03C134.23 148.78 135.3 150.39 138.17 150.66C138.26 150.72 137.99 155.04 131.31 156.48C125.24 157.79 121.72 155.26 120.48 150.62C118.87 155.78 114.8 160.02 108.89 161.3ZM111.99 130.58C106.46 131.77 104.16 137.89 105.37 143.5C106.18 147.26 109.1 149.28 112.56 148.54C116.71 147.65 119.5 143.83 119.46 138.78L119.44 133.88C117.78 131.34 115.37 129.85 111.99 130.58Z" fill="white"/>
<path d="M191.08 101.8C197.99 100.31 203.32 104.55 204.78 111.3C205.36 113.99 205.32 117.53 205 122.74C204.78 126.56 204.65 129.72 204.99 131.26C205.47 133.49 206.69 134.27 208.78 134.3C209.01 134.25 208.68 139.78 201.15 141.41C194.78 142.78 191.44 140.37 190.47 135.84C189.99 133.61 190.05 131.27 190.32 126.55C190.53 123.05 190.54 120.48 190.27 119.25C189.66 116.41 187.66 114.99 185.28 115.5C183.29 115.93 181.87 117.2 180.65 119.71C180.63 119.63 180.77 137.76 180.77 137.76C180.77 143.39 179.16 145.58 175.39 146.39L173.86 146.72C169.86 147.58 165.99 146.74 166.02 140.94L165.94 126.41C165.9 122.49 163.86 120.11 161.02 120.73C158.88 121.19 157.54 122.44 156.34 124.71L156.35 143.03C156.43 148.64 154.82 150.83 150.98 151.66L149.52 151.97C145.52 152.83 141.63 151.9 141.6 146.2L141.51 114.08C141.52 113.76 143.23 112.74 145.61 112.23C149.37 111.42 153.4 112.56 155.06 117.67C157.32 112.12 161.07 108.26 166.75 107.03C172.05 105.89 176.93 108.05 179.24 112.78C181.4 107.26 185.01 103.11 191.08 101.8Z" fill="white"/>
<path d="M232.12 124.29C236.57 123.33 239.68 120.25 241.24 117.02C241.3 116.93 247.22 116.46 248.2 120.98C248.76 123.59 248.28 125.06 247.02 127.03C245.09 130.02 240.82 132.95 234.06 134.4C220.54 137.31 212.94 131.48 210.87 121.88C207.87 107.98 216.53 96.3104 229.81 93.4504C240.25 91.2004 246.81 94.7704 248.34 101.91C250.04 109.82 246.06 115.58 229.25 119.2C227.33 119.61 225.34 120.04 223.08 120.37C224.32 123.89 227.44 125.3 232.12 124.29ZM226.24 111.17C234.76 109.33 237.03 107.16 236.55 104.93C236.2 103.32 234.28 102.21 231.12 102.89C226.82 103.82 223.92 107.5 222.85 111.82C224.09 111.64 225.24 111.39 226.24 111.17Z" fill="white"/>
<path d="M75.9201 228.79C62.9501 231.59 53.1701 225.01 50.2901 211.65C46.8101 195.53 55.8601 178.95 73.2101 175.21C81.3501 173.46 87.9401 174.61 92.0301 177.18C94.2901 178.7 95.7701 180.71 96.2301 182.86C97.8001 190.16 88.6601 192.13 88.1601 191.67C85.4901 188.95 81.3301 187.2 76.4901 188.24C68.5801 189.94 63.6801 198.15 65.6101 207.14C66.9001 213.86 71.9601 217.58 78.4101 216.19C80.9501 215.64 82.7901 214.53 84.1401 212.95C85.3501 211.49 86.1501 210.35 86.4901 207.46L80.8901 208.67C77.3601 209.43 75.1701 208.22 74.6501 205.83C74.3901 204.6 74.2601 201.42 75.4001 199.64C76.2001 198.51 77.2201 197.64 80.1401 197.02L94.3501 193.96C98.5001 193.07 100.51 194.96 100.54 199.93L100.57 221.3C100.58 221.7 98.8901 223.19 96.2001 223.77C92.6701 224.53 89.7401 223.64 88.2901 220.25C86.0701 224.43 81.8301 227.51 75.9201 228.79Z" fill="white"/>
<path d="M122.93 218.57C114.71 220.34 107.83 215.64 105.83 206.35C103.13 193.83 108.79 179.84 121 177.2C125.84 176.16 130.93 177.39 134.1 181.29C135.18 176.64 137.95 174.19 142.79 173.15C145.63 172.54 148.2 173.27 148.24 173.83L148.29 201.3C148.27 206.05 149.34 207.66 152.21 207.93C152.3 207.99 152.03 212.31 145.35 213.75C139.28 215.06 135.76 212.53 134.52 207.89C132.91 213.05 128.84 217.3 122.93 218.57ZM126.03 187.85C120.5 189.04 118.2 195.16 119.41 200.77C120.22 204.53 123.14 206.55 126.6 205.81C130.75 204.92 133.54 201.1 133.5 196.05L133.48 191.15C131.82 188.61 129.41 187.12 126.03 187.85Z" fill="white"/>
<path d="M205.11 159.07C212.02 157.58 217.35 161.82 218.81 168.57C219.39 171.26 219.35 174.8 219.03 180.01C218.81 183.83 218.68 186.99 219.02 188.53C219.5 190.76 220.72 191.54 222.81 191.57C223.04 191.52 222.71 197.05 215.18 198.68C208.81 200.05 205.47 197.64 204.5 193.11C204.02 190.88 204.08 188.54 204.35 183.82C204.56 180.32 204.57 177.75 204.3 176.52C203.69 173.68 201.69 172.26 199.31 172.77C197.32 173.2 195.9 174.47 194.68 176.98C194.66 176.9 194.8 195.03 194.8 195.03C194.8 200.66 193.19 202.85 189.42 203.66L187.89 203.99C183.89 204.85 180.02 204.01 180.05 198.21L179.97 183.68C179.93 179.76 177.89 177.38 175.05 178C172.91 178.46 171.57 179.71 170.37 181.98L170.38 200.3C170.46 205.91 168.85 208.1 165.01 208.93L163.55 209.24C159.55 210.1 155.66 209.17 155.63 203.47L155.54 171.35C155.55 171.03 157.26 170.01 159.64 169.5C163.4 168.69 167.43 169.83 169.09 174.94C171.35 169.39 175.1 165.53 180.78 164.3C186.08 163.16 190.96 165.32 193.27 170.05C195.44 164.54 199.04 160.38 205.11 159.07Z" fill="white"/>
<path d="M246.16 181.57C250.61 180.61 253.72 177.53 255.28 174.3C255.34 174.21 261.26 173.74 262.24 178.26C262.8 180.87 262.32 182.34 261.06 184.31C259.13 187.3 254.86 190.23 248.1 191.68C234.58 194.59 226.98 188.76 224.91 179.16C221.91 165.26 230.57 153.59 243.85 150.73C254.29 148.48 260.85 152.05 262.38 159.19C264.08 167.1 260.1 172.86 243.29 176.48C241.37 176.89 239.38 177.32 237.12 177.65C238.36 181.16 241.47 182.58 246.16 181.57ZM240.27 168.45C248.79 166.61 251.06 164.44 250.58 162.21C250.23 160.6 248.31 159.49 245.15 160.17C240.85 161.1 237.95 164.78 236.88 169.1C238.12 168.91 239.27 168.66 240.27 168.45Z" fill="white"/>
<path d="M143.09 2.83013L137.77 4.02013L133.77 0.310132C133.06 -0.349868 131.91 0.0901322 131.82 1.06013L131.31 6.49013L126.55 9.15013C125.71 9.62013 125.77 10.8601 126.66 11.2401L131.67 13.4001L132.73 18.7501C132.92 19.7001 134.11 20.0201 134.75 19.2901L138.36 15.1901L143.78 15.8401C144.74 15.9501 145.41 14.9201 144.92 14.0901L142.14 9.39013L144.43 4.44013C144.81 3.58013 144.03 2.62013 143.09 2.83013Z" fill="white"/>
<path d="M87.0299 258.99L82.0499 256.75L81.0699 251.38C80.8999 250.43 79.7099 250.09 79.0599 250.81L75.3899 254.85L69.9799 254.12C69.0199 253.99 68.3299 255.02 68.8099 255.85L71.5199 260.59L69.1599 265.51C68.7399 266.38 69.4999 267.35 70.4499 267.16L75.7899 266.04L79.7399 269.81C80.4399 270.48 81.5999 270.05 81.6999 269.09L82.2899 263.67L87.0899 261.08C87.9499 260.62 87.9099 259.39 87.0299 258.99Z" fill="white"/>
<path d="M271.76 140.58L266.58 138.4C265.15 137.8 264.48 136.14 265.08 134.71L267.26 129.53C267.86 128.1 269.52 127.43 270.95 128.03L276.13 130.21C277.56 130.81 278.23 132.47 277.63 133.9L275.45 139.08C274.85 140.52 273.19 141.19 271.76 140.58Z" fill="white"/>
<path d="M0.080056 134.56L2.63006 144.09C3.08006 145.78 5.20006 146.35 6.44006 145.11L13.4101 138.14C14.6501 136.9 14.0801 134.78 12.3901 134.33L2.86006 131.78C1.18006 131.32 -0.369944 132.87 0.080056 134.56Z" fill="white"/>
<path d="M229.44 226.91L223.21 234.56C222.1 235.92 222.88 237.97 224.61 238.25L234.35 239.82C236.08 240.1 237.46 238.4 236.84 236.76L233.33 227.54C232.71 225.9 230.55 225.55 229.44 226.91Z" fill="white"/>
</g>
<defs>
<clipPath id="clip0">
<rect width="277.86" height="270.14" fill="white"/>
</clipPath>
</defs>
</svg>
